PathFileType	4	(X/Y/Z)	Patient4_TMGait_0pt4_03_right_26.trc.trc
DataRate	CameraRate	NumFrames	NumMarkers	Units	OrigDataRate	OrigDataStartFrame	OrigNumFrames
73.298429319372	73.298429319372	4	33	mm	73.298429319372	1	       141
Frame#	Time	Sacral			L.Shoulder			Chest			R.Shoulder			Neck			R.ASIS			L.ASIS			R.Thigh.Superior			R.Thigh.Lateral			R.Thigh.Inferior			R.Patella			L.Thigh.Superior			L.Thigh.Lateral			L.Thigh.Inferior			L.Patella			L.Shank.Superior			L.Shank.Lateral			L.Shank.Inferior			R.Shank.Superior			R.Shank.Lateral			R.Shank.Inferior			R.Heel			R.Midfoot.Superior			R.Midfoot.Lateral			R.Toe			L.Heel			L.Midfoot.Lateral			L.Midfoot.Superior			L.Toe			L.Elbow			L.Wrist			R.Elbow			R.Wrist			
		X1	Y1	Z1	X2	Y2	Z2	X3	Y3	Z3	X4	Y4	Z4	X5	Y5	Z5	X6	Y6	Z6	X7	Y7	Z7	X8	Y8	Z8	X9	Y9	Z9	X10	Y10	Z10	X11	Y11	Z11	X12	Y12	Z12	X13	Y13	Z13	X14	Y14	Z14	X15	Y15	Z15	X16	Y16	Z16	X17	Y17	Z17	X18	Y18	Z18	X19	Y19	Z19	X20	Y20	Z20	X21	Y21	Z21	X22	Y22	Z22	X23	Y23	Z23	X24	Y24	Z24	X25	Y25	Z25	X26	Y26	Z26	X27	Y27	Z27	X28	Y28	Z28	X29	Y29	Z29	X30	Y30	Z30	X31	Y31	Z31	X32	Y32	Z32	X33	Y33	Z33	

1	33.560000000000	832.794714960198	1007.486044277696	401.435116131095	1019.395721470565	1432.606998942394	209.036233447289	1117.593242667909	1368.348521747288	374.470590895243	1030.042569372290	1443.893061898104	545.940229463905	997.060966405619	1498.832084852119	363.052662242062	1062.286059927366	950.420876645185	520.695268893196	1048.870902080433	963.050869631912	246.331965267672	1143.775285235963	777.162191861960	495.956213919143	1102.498963557928	657.827514925356	573.209356876523	1192.897751427026	615.526581047505	497.094966049225	1209.328624002066	503.380757693839	522.844738365743	1101.024451747905	754.513844306323	268.398990910009	1012.301541728670	637.140116953600	212.725936321790	1102.070631329037	562.142409644320	270.751273563742	1103.629610196405	493.465139091939	280.182250826919	1078.916167960482	420.428513167594	273.604329745177	989.631742891081	303.240814789004	226.030021376867	1047.278947251168	194.268802630767	296.889217176759	1131.621944284057	429.974470366760	533.366796400590	1010.931660577633	397.597976227444	600.368540487681	988.926871008093	288.048110503007	554.463216685192	785.843261923097	241.096971453541	538.187394073602	948.482502803341	163.075401519057	567.946121585866	840.847710235898	171.985166030649	606.430036695752	1003.449754754609	44.296385729172	588.471835182616	924.810641271091	38.537659624262	348.513892249783	993.640790147791	35.058507129264	263.245915127431	1078.400780128688	96.364338598934	285.963618888441	1205.218121958606	44.543507464852	249.950100912727	1038.546073416708	1092.465742560601	64.433390997854	1192.581659213882	881.348680915123	29.612337489968	974.366958468188	1098.832131000667	663.949919114690	1044.080099964046	845.786501801212	670.478593305273	
2	33.573642857143	831.820170619165	1008.649335460012	399.101736896085	1021.404184214982	1433.460187004709	207.959380071261	1117.565139443150	1368.928858530621	374.412101247158	1028.260152159400	1444.684250905684	544.805419054267	997.414049134915	1499.612814356225	361.878786666559	1060.598173658301	951.668082692574	519.972001155892	1048.997352680915	963.599267071772	245.554104733958	1143.748266042024	780.697864920596	494.594880306932	1104.995022537685	660.966977446149	572.298124483627	1195.403195733128	619.791156101874	495.800582910614	1214.311180727219	508.601409076748	521.835434749758	1098.654716525942	753.847920522110	268.425524513919	1008.767661369287	637.420060524989	212.204034364610	1097.378914634270	561.577075753686	270.711169054182	1098.170702392440	493.106884493204	280.201362897481	1073.455659015185	420.358956175477	273.420357781577	984.019363677793	303.337254314022	225.813054697985	1041.514104124207	194.279262137180	296.775232112436	1138.914220406282	433.103405834091	532.505146293170	1019.774907247110	396.162025141047	599.453975038744	1001.963011284474	285.985750532924	553.647416663733	801.052971653719	231.110023075191	537.512254579078	966.402696710677	159.803470417890	566.989786518178	858.818440706198	164.403259365618	605.797352451499	1026.092509312778	43.416027519796	587.330936536066	918.919161670799	38.541301342459	348.473907054116	987.816441757830	35.041950854822	263.197687305509	1072.565851403178	96.334921802192	285.896771916162	1199.414430056443	44.521511650150	249.948045354248	1044.848561561086	1095.009829640212	61.333223483336	1204.922721747882	888.858014732346	25.813971220272	963.542438548935	1101.729336484451	662.049626106473	1024.232267655169	846.924959827365	667.983077865621	
3	33.587285714286	830.859219787151	1009.772659529857	396.808091851015	1023.415144367766	1434.264457239385	206.917151519742	1117.547206643350	1369.469744319974	374.379635444298	1026.513724195165	1445.443932092447	543.696765143528	997.774478475844	1500.355690301356	360.734733124568	1058.913198655351	952.863326359215	519.291819036266	1049.123730851859	964.114815404304	244.813971791336	1143.651642631523	784.080652690301	493.323073638442	1107.289249784608	663.953553298915	571.442925538880	1197.692243275360	623.843058759409	494.598735173091	1218.972991837208	513.673382683734	520.911905629018	1096.289620192968	753.180509015068	268.476617674998	1005.261717712088	637.694444919312	211.673919224978	1092.713694479682	561.008122085593	270.668116234683	1092.734440310344	492.747538324747	280.211844426964	1068.023537381192	420.285912207349	273.232877390021	978.440815077035	303.422855207295	225.591264301090	1035.778192903092	194.285145509967	296.659967911285	1146.011954240399	436.073338605228	531.710783495776	1028.568784416719	394.418747973246	598.647777566659	1015.094693152965	283.647025923054	552.920757780239	816.528397103271	220.611825035411	537.002052666156	984.602840717064	156.276205998739	566.114884105461	877.148566355462	156.415414649334	605.282234202620	1049.146690825543	42.430635478456	586.212244147343	913.058952425584	38.542759519789	348.435265472045	982.018299600095	35.024254008519	263.149784197218	1066.757650914470	96.305898091313	285.832500342418	1193.637138453379	44.501740561105	249.944698597683	1051.012647997231	1097.490278456171	58.291704081988	1217.078867142544	896.319903219171	22.129141852081	952.828264281916	1104.635676732789	660.161258252292	1004.677274708131	848.160019956307	665.533476606179	
4	33.600928571429	829.935439615795	1010.814319063893	394.606529583232	1025.416429540679	1434.969398994790	205.951973787249	1117.552867010911	1369.929349875480	374.399657146188	1024.853622278613	1446.138028626233	542.651554283409	998.152135482580	1501.021210899387	359.659440611639	1057.248869310559	953.946361871493	518.700947250378	1049.254126145560	964.566536342685	244.152239151321	1143.383983003513	787.108246524653	492.234623908908	1109.127427248920	666.613184884276	570.712625665181	1199.491143333110	627.431616972805	493.576734941291	1222.942441667821	518.406506056361	520.135412928933	1093.950872433514	752.511948083734	268.575271584533	1001.826265319906	637.955428448500	211.137672075755	1088.119292156938	560.433497469159	270.623507437648	1087.367548211195	492.386568036227	280.209392382242	1062.668126037466	420.204469004473	273.043824619817	972.947632302929	303.489278732450	225.363783820238	1030.116593949826	194.281416766541	296.545145443412	1152.655127162612	438.741718036873	531.041723414119	1037.221932676874	392.148753253586	598.045593564304	1028.343986597857	280.891051310243	552.352479740436	832.535474385043	209.310993321075	536.763555597406	1003.264121278293	152.423970599938	565.381653968779	896.127923235167	147.846939517779	604.963819741936	1072.853176082321	41.446139597117	585.154112593651	907.272131609671	38.541995189056	348.398307459223	976.286626867305	35.004528258852	263.103346634201	1061.017395509497	96.277260866657	285.774069853514	1187.927173172926	44.485112633376	249.939790218222	1056.881386319471	1099.829147796790	55.390039406870	1228.809212849525	903.640944921208	18.687779109919	942.411287238096	1107.529683481667	658.310981005765	985.815441990515	849.549156363019	663.186895182618	
